<svg width="1024" height="1024" viewBox="0 0 1024 1024" fill="none" xmlns="http://www.w3.org/2000/svg">
<path fill-rule="evenodd" clip-rule="evenodd" d="M834.442 602.074C872.642 469.992 822.735 322.315 701.403 242.956C608.095 181.357 496.205 174.185 399.95 214.365C393.883 216.897 386.016 214.8 381.661 209.875C373.755 200.935 377.375 187.28 388.403 182.716C493.597 139.181 616.746 147.395 719.217 214.83C854.465 303.704 909.443 469.023 864.196 616.266C907.705 647.71 918.752 706.956 889.433 751.85C858.551 797.705 797.724 809.87 751.869 779.924C706.014 749.042 693.849 688.215 723.795 642.36C748.242 605.689 793.271 590.224 834.442 602.074ZM661.282 840.548C671.766 836.144 674.215 822.497 666.917 813.777C662.307 808.268 654.916 806.941 648.277 809.684C552.208 849.379 439.95 842.464 347.001 781.103C225.348 701.534 175.498 553.91 214.267 421.282C254.409 432.234 298.483 417.133 323.268 380.331C354.15 334.476 341.048 273.648 295.193 242.767C249.339 212.821 188.511 225.922 157.629 270.841C127.988 316.228 139.605 376.285 184.313 407.452C138.876 554.78 193.835 720.286 329.187 809.229C432.199 877.02 555.766 884.874 661.282 840.548Z" fill="#3C97FF"/>
</svg>
